{"title":"Happy Ending 2014 Hindi MC-DVD-SCR GOPI SAHI PDR","uid":11532956,"size":722415421,"categoryP":"video","categoryS":"movies","magnet":"?xt=urn:btih:3165a5523e23a67545626340e6ec3a6b0f9891b2&amp;dn=Happy+Ending+2014+Hindi+MC-DVD-SCR+GOPI+SAHI+PDR&amp;tr=udp%3A%2F%2Ftracker.openbittorrent.com%3A80&amp;tr=udp%3A%2F%2Fopen.demonii.com%3A1337&amp;tr=udp%3A%2F%2Ftracker.coppersurfer.tk%3A6969&amp;tr=udp%3A%2F%2Fexodus.desync.com%3A6969","seeders":2,"leechers":0,"uploader":"jatt13","files":1,"time":1416591878,"description":"General\nUnique ID                      : 185082393849967628195704930008878746140 (0x8B3D928C0C1CF1DE8469965323670A1C)\nComplete name                  : D:Happy Ending 2014 Hindi MC-DVD-SCR GOPI SAHI PDR.mkv\nFormat                         : Matroska\nFormat version                 : Version 4 / Version 2\nFile size                      : 689 MiB\nDuration                       : 2h 13mn\nOverall bit rate               : 724 Kbps\nMovie name                     : GOPI SAHI\nEncoded date                   : UTC 2014-11-22 06:03:26\nWriting application            : mkvmerge v6.5.0 ('Isn't she lovely') built on Oct 20 2013 12:50:05\nWriting library                : libebml v1.3.0 + libmatroska v1.4.1\n\nVideo\nID                             : 1\nFormat                         : MPEG-4 Visual\nFormat profile                 : Advanced Simple@L5\nFormat settings, BVOP          : Yes\nFormat settings, QPel          : No\nFormat settings, GMC           : No warppoints\nFormat settings, Matrix        : Default (H.263)\nCodec ID                       : V_MS/VFW/FOURCC / XVID\nCodec ID/Hint                  : XviD\nDuration                       : 2h 13mn\nBit rate                       : 629 Kbps\nWidth                          : 640 pixels\nHeight                         : 272 pixels\nDisplay aspect ratio           : 2.25:1\nOriginal display aspect ratio  : 2.25:1\nFrame rate mode                : Constant\nFrame rate                     : 25.000 fps\nColor space                    : YUV\nChroma subsampling             : 4:2:0\nBit depth                      : 8 bits\nScan type                      : Progressive\nCompression mode               : Lossy\nBits/(Pixel*Frame)             : 0.145\nStream size                    : 599 MiB (87%)\nTitle                          : GOPI SAHI\nWriting library                : XviD 1.2.1 (UTC 2008-12-04)\nLanguage                       : Hindi\nDefault                        : Yes\nForced                         : No\n\nAudio\nID                             : 2\nFormat                         : MPEG Audio\nFormat version                 : Version 1\nFormat profile                 : Layer 3\nMode                           : Joint stereo\nMode extension                 : MS Stereo\nCodec ID                       : A_MPEG/L3\nCodec ID/Hint                  : MP3\nDuration                       : 2h 13mn\nBit rate mode                  : Constant\nBit rate                       : 80.0 Kbps\nChannel(s)                     : 2 channels\nSampling rate                  : 32.0 KHz\nCompression mode               : Lossy\nStream size                    : 76.1 MiB (11%)\nTitle                          : GOPI SAHI\nWriting library                : LAME3.99r\nEncoding settings              : -m j -V 4 -q 2 -lowpass 13.5 -b 80\nLanguage                       : Hindi\nDefault                        : Yes\nForced                         : No\n[IMG] http://imgchicken.com/images/19688336150178920001.jpg\n[IMG] http://imgchicken.com/images/08531250670043294324.jpg\n[IMG] http://imgchicken.com/images/75935948436346837584.jpg\n[IMG] http://imgchicken.com/images/22065131224930050075.jpg\n[IMG] http://imgchicken.com/images/10061318511622875620.jpg","torrent":{"xt":"urn:btih:3165a5523e23a67545626340e6ec3a6b0f9891b2","amp;dn":"Happy+Ending+2014+Hindi+MC-DVD-SCR+GOPI+SAHI+PDR","amp;tr":["udp%3A%2F%2Ftracker.openbittorrent.com%3A80","udp%3A%2F%2Fopen.demonii.com%3A1337","udp%3A%2F%2Ftracker.coppersurfer.tk%3A6969","udp%3A%2F%2Fexodus.desync.com%3A6969"],"infoHash":"3165a5523e23a67545626340e6ec3a6b0f9891b2","infoHashBuffer":{"type":"Buffer","data":[49,101,165,82,62,35,166,117,69,98,99,64,230,236,58,107,15,152,145,178]},"announce":[],"urlList":[]}}